<svg xmlns="http://www.w3.org/2000/svg" xmlns:xlink="http://www.w3.org/1999/xlink" width="480" zoomAndPan="magnify" viewBox="0 0 360 36.000001" height="48" preserveAspectRatio="xMidYMid meet" version="1.0"><defs><g/><clipPath id="ffb313083c"><path d="M 20 1.242188 L 50.585938 1.242188 L 50.585938 33.777344 L 20 33.777344 Z M 20 1.242188 " clip-rule="nonzero"/></clipPath><clipPath id="894ca3cc06"><path d="M 29.605469 13.820312 L 45.132812 13.820312 L 45.132812 29.347656 L 29.605469 29.347656 Z M 29.605469 13.820312 " clip-rule="nonzero"/></clipPath><clipPath id="faa9da2858"><path d="M 37.371094 13.820312 C 33.082031 13.820312 29.605469 17.296875 29.605469 21.585938 C 29.605469 25.871094 33.082031 29.347656 37.371094 29.347656 C 41.65625 29.347656 45.132812 25.871094 45.132812 21.585938 C 45.132812 17.296875 41.65625 13.820312 37.371094 13.820312 Z M 37.371094 13.820312 " clip-rule="nonzero"/></clipPath><clipPath id="34aee9aa88"><path d="M 29.777344 13.921875 L 44.992188 13.921875 L 44.992188 29.136719 L 29.777344 29.136719 Z M 29.777344 13.921875 " clip-rule="nonzero"/></clipPath></defs><g clip-path="url(#ffb313083c)"><path fill="#100f0d" d="M 43.460938 14.460938 C 43.179688 14.460938 42.949219 14.230469 42.949219 13.949219 C 42.949219 13.671875 43.179688 13.441406 43.460938 13.441406 C 43.738281 13.441406 43.96875 13.671875 43.96875 13.949219 C 43.96875 14.230469 43.738281 14.460938 43.460938 14.460938 Z M 40.40625 14.035156 L 40.40625 2.257812 L 43.460938 2.257812 L 43.460938 12.425781 C 42.617188 12.425781 41.933594 13.109375 41.933594 13.949219 C 41.933594 14.1875 41.988281 14.410156 42.082031 14.609375 L 41.875 14.816406 C 41.417969 14.507812 40.925781 14.246094 40.40625 14.035156 Z M 44.476562 21.574219 C 44.476562 25.5 41.28125 28.691406 37.355469 28.691406 C 33.429688 28.691406 30.238281 25.5 30.238281 21.574219 C 30.238281 17.652344 33.429688 14.460938 37.355469 14.460938 C 41.28125 14.460938 44.476562 17.652344 44.476562 21.574219 Z M 48.394531 31.890625 C 48.492188 31.988281 48.542969 32.117188 48.542969 32.25 C 48.542969 32.386719 48.492188 32.515625 48.394531 32.609375 C 48.300781 32.707031 48.171875 32.757812 48.035156 32.757812 C 47.898438 32.757812 47.773438 32.707031 47.675781 32.609375 L 42.734375 27.671875 C 42.992188 27.449219 43.230469 27.207031 43.457031 26.953125 Z M 28.203125 20.621094 L 28.203125 8.867188 L 31.253906 8.867188 L 31.253906 16.203125 C 30.40625 17.164062 29.78125 18.332031 29.460938 19.613281 Z M 27.1875 22.59375 C 26.90625 22.59375 26.679688 22.363281 26.679688 22.085938 C 26.679688 21.804688 26.90625 21.574219 27.1875 21.574219 C 27.46875 21.574219 27.695312 21.804688 27.695312 22.085938 C 27.695312 22.363281 27.46875 22.59375 27.1875 22.59375 Z M 23.734375 20.246094 L 22.101562 22.34375 L 22.101562 12.425781 L 25.152344 12.425781 L 25.152344 20.5 L 24.363281 20.105469 C 24.148438 19.996094 23.882812 20.054688 23.734375 20.246094 Z M 34.304688 4.800781 L 37.355469 4.800781 L 37.355469 13.441406 C 36.277344 13.441406 35.25 13.652344 34.304688 14.035156 Z M 50.070312 9.882812 L 48.035156 9.882812 C 47.753906 9.882812 47.527344 10.113281 47.527344 10.390625 C 47.527344 10.671875 47.753906 10.902344 48.035156 10.902344 L 48.949219 10.902344 L 46.3125 13.910156 L 44.960938 13.6875 C 44.902344 13.34375 44.726562 13.039062 44.476562 12.816406 L 44.476562 1.75 C 44.476562 1.46875 44.25 1.242188 43.96875 1.242188 L 39.898438 1.242188 C 39.617188 1.242188 39.390625 1.46875 39.390625 1.75 L 39.390625 13.699219 C 39.058594 13.613281 38.71875 13.550781 38.375 13.503906 L 38.375 4.292969 C 38.375 4.011719 38.144531 3.785156 37.867188 3.785156 L 33.796875 3.785156 C 33.515625 3.785156 33.289062 4.011719 33.289062 4.292969 L 33.289062 14.535156 C 32.933594 14.742188 32.59375 14.976562 32.273438 15.230469 L 32.273438 8.359375 C 32.273438 8.078125 32.042969 7.851562 31.761719 7.851562 L 27.695312 7.851562 C 27.414062 7.851562 27.1875 8.078125 27.1875 8.359375 L 27.1875 20.558594 C 26.796875 20.558594 26.441406 20.707031 26.171875 20.949219 L 26.171875 11.917969 C 26.171875 11.636719 25.941406 11.410156 25.660156 11.410156 L 21.59375 11.410156 C 21.3125 11.410156 21.085938 11.636719 21.085938 11.917969 L 21.085938 23.652344 L 20.175781 24.824219 C 20.003906 25.042969 20.042969 25.363281 20.265625 25.535156 C 20.355469 25.609375 20.46875 25.644531 20.574219 25.644531 C 20.726562 25.644531 20.878906 25.574219 20.976562 25.445312 L 24.28125 21.199219 L 25.671875 21.894531 C 25.664062 21.957031 25.660156 22.019531 25.660156 22.085938 C 25.660156 22.925781 26.347656 23.609375 27.1875 23.609375 C 28.027344 23.609375 28.710938 22.925781 28.710938 22.085938 C 28.710938 21.910156 28.683594 21.738281 28.628906 21.582031 L 29.234375 21.097656 C 29.226562 21.253906 29.222656 21.414062 29.222656 21.574219 C 29.222656 26.0625 32.871094 29.710938 37.355469 29.710938 C 39.050781 29.710938 40.625 29.1875 41.925781 28.300781 L 46.957031 33.328125 C 47.246094 33.617188 47.628906 33.777344 48.035156 33.777344 C 48.441406 33.777344 48.824219 33.617188 49.113281 33.328125 C 49.402344 33.042969 49.5625 32.660156 49.5625 32.25 C 49.5625 31.84375 49.402344 31.460938 49.113281 31.171875 L 44.085938 26.144531 C 44.972656 24.839844 45.492188 23.269531 45.492188 21.574219 C 45.492188 19.128906 44.40625 16.929688 42.691406 15.4375 L 42.800781 15.328125 C 43 15.421875 43.222656 15.476562 43.460938 15.476562 C 44.03125 15.476562 44.53125 15.15625 44.792969 14.6875 L 46.425781 14.960938 C 46.453125 14.964844 46.480469 14.96875 46.511719 14.96875 C 46.65625 14.96875 46.796875 14.90625 46.894531 14.792969 L 49.5625 11.746094 L 49.5625 12.425781 C 49.5625 12.707031 49.789062 12.933594 50.070312 12.933594 C 50.351562 12.933594 50.578125 12.707031 50.578125 12.425781 L 50.578125 10.390625 C 50.578125 10.113281 50.351562 9.882812 50.070312 9.882812 " fill-opacity="1" fill-rule="nonzero"/></g><path fill="#100f0d" d="M 37.355469 26.660156 C 34.554688 26.660156 32.273438 24.378906 32.273438 21.574219 C 32.273438 18.773438 34.554688 16.492188 37.355469 16.492188 C 40.160156 16.492188 42.441406 18.773438 42.441406 21.574219 C 42.441406 24.378906 40.160156 26.660156 37.355469 26.660156 Z M 37.355469 15.476562 C 33.992188 15.476562 31.253906 18.210938 31.253906 21.574219 C 31.253906 24.9375 33.992188 27.675781 37.355469 27.675781 C 40.722656 27.675781 43.460938 24.9375 43.460938 21.574219 C 43.460938 18.210938 40.722656 15.476562 37.355469 15.476562 " fill-opacity="1" fill-rule="nonzero"/><path fill="#100f0d" d="M 37.355469 24.625 C 35.675781 24.625 34.304688 23.257812 34.304688 21.574219 C 34.304688 21.296875 34.078125 21.066406 33.796875 21.066406 C 33.515625 21.066406 33.289062 21.296875 33.289062 21.574219 C 33.289062 23.816406 35.113281 25.644531 37.355469 25.644531 C 37.636719 25.644531 37.867188 25.414062 37.867188 25.132812 C 37.867188 24.855469 37.636719 24.625 37.355469 24.625 " fill-opacity="1" fill-rule="nonzero"/><g clip-path="url(#894ca3cc06)"><g clip-path="url(#faa9da2858)"><path fill="#ffffff" d="M 29.605469 13.820312 L 45.132812 13.820312 L 45.132812 29.347656 L 29.605469 29.347656 Z M 29.605469 13.820312 " fill-opacity="1" fill-rule="nonzero"/></g></g><g clip-path="url(#34aee9aa88)"><path fill="#00bf63" d="M 41.894531 20.703125 C 39.453125 19.253906 35.378906 19.101562 33.050781 19.828125 C 32.671875 19.941406 32.289062 19.710938 32.175781 19.371094 C 32.0625 18.988281 32.289062 18.609375 32.632812 18.492188 C 35.339844 17.691406 39.796875 17.84375 42.617188 19.523438 C 42.960938 19.710938 43.074219 20.167969 42.882812 20.511719 C 42.695312 20.78125 42.238281 20.894531 41.894531 20.703125 Z M 41.816406 22.835938 C 41.625 23.105469 41.285156 23.21875 41.015625 23.027344 C 38.960938 21.769531 35.835938 21.390625 33.433594 22.152344 C 33.128906 22.226562 32.785156 22.074219 32.710938 21.769531 C 32.632812 21.464844 32.785156 21.121094 33.089844 21.046875 C 35.871094 20.207031 39.300781 20.628906 41.664062 22.074219 C 41.894531 22.191406 42.007812 22.570312 41.816406 22.835938 Z M 40.902344 24.933594 C 40.75 25.160156 40.484375 25.238281 40.253906 25.085938 C 38.464844 23.980469 36.214844 23.75 33.546875 24.363281 C 33.28125 24.4375 33.050781 24.246094 32.976562 24.019531 C 32.898438 23.75 33.089844 23.523438 33.320312 23.445312 C 36.214844 22.800781 38.730469 23.066406 40.710938 24.285156 C 40.980469 24.398438 41.015625 24.703125 40.902344 24.933594 Z M 37.398438 13.921875 C 36.394531 13.921875 35.40625 14.117188 34.480469 14.5 C 33.554688 14.882812 32.714844 15.445312 32.007812 16.152344 C 30.578125 17.582031 29.777344 19.519531 29.777344 21.542969 C 29.777344 23.5625 30.578125 25.5 32.007812 26.929688 C 32.714844 27.636719 33.554688 28.199219 34.480469 28.582031 C 35.40625 28.964844 36.394531 29.164062 37.398438 29.164062 C 39.417969 29.164062 41.355469 28.359375 42.785156 26.929688 C 44.214844 25.5 45.019531 23.5625 45.019531 21.542969 C 45.019531 20.539062 44.820312 19.550781 44.4375 18.625 C 44.054688 17.699219 43.492188 16.859375 42.785156 16.152344 C 42.078125 15.445312 41.238281 14.882812 40.3125 14.5 C 39.390625 14.117188 38.398438 13.921875 37.398438 13.921875 Z M 37.398438 13.921875 " fill-opacity="1" fill-rule="nonzero"/></g><g fill="#28242e" fill-opacity="1"><g transform="translate(54.517085, 25.175677)"><g><path d="M 12.625 -3.140625 L 6 -3.140625 L 4.9375 0 L 0.40625 0 L 6.828125 -17.765625 L 11.84375 -17.765625 L 18.265625 0 L 13.6875 0 Z M 11.515625 -6.46875 L 9.3125 -12.984375 L 7.140625 -6.46875 Z M 11.515625 -6.46875 "/></g></g></g><g fill="#28242e" fill-opacity="1"><g transform="translate(73.155613, 25.175677)"><g><path d="M 17.453125 0 L 13.125 0 L 5.890625 -10.953125 L 5.890625 0 L 1.5625 0 L 1.5625 -17.765625 L 5.890625 -17.765625 L 13.125 -6.75 L 13.125 -17.765625 L 17.453125 -17.765625 Z M 17.453125 0 "/></g></g></g><g fill="#28242e" fill-opacity="1"><g transform="translate(92.173481, 25.175677)"><g><path d="M 12.625 -3.140625 L 6 -3.140625 L 4.9375 0 L 0.40625 0 L 6.828125 -17.765625 L 11.84375 -17.765625 L 18.265625 0 L 13.6875 0 Z M 11.515625 -6.46875 L 9.3125 -12.984375 L 7.140625 -6.46875 Z M 11.515625 -6.46875 "/></g></g></g><g fill="#28242e" fill-opacity="1"><g transform="translate(110.812009, 25.175677)"><g><path d="M 5.890625 -3.34375 L 11.5625 -3.34375 L 11.5625 0 L 1.5625 0 L 1.5625 -17.765625 L 5.890625 -17.765625 Z M 5.890625 -3.34375 "/></g></g></g><g fill="#28242e" fill-opacity="1"><g transform="translate(122.875209, 25.175677)"><g><path d="M 5.890625 -17.765625 L 5.890625 0 L 1.5625 0 L 1.5625 -17.765625 Z M 5.890625 -17.765625 "/></g></g></g><g fill="#28242e" fill-opacity="1"><g transform="translate(130.335675, 25.175677)"><g><path d="M 6.171875 -3.546875 L 13.8125 -3.546875 L 13.8125 0 L 1.265625 0 L 1.265625 -3.28125 L 8.859375 -14.21875 L 1.265625 -14.21875 L 1.265625 -17.765625 L 13.8125 -17.765625 L 13.8125 -14.46875 Z M 6.171875 -3.546875 "/></g></g></g><g fill="#28242e" fill-opacity="1"><g transform="translate(145.408353, 25.175677)"><g><path d="M 12.625 -3.140625 L 6 -3.140625 L 4.9375 0 L 0.40625 0 L 6.828125 -17.765625 L 11.84375 -17.765625 L 18.265625 0 L 13.6875 0 Z M 11.515625 -6.46875 L 9.3125 -12.984375 L 7.140625 -6.46875 Z M 11.515625 -6.46875 "/></g></g></g><g fill="#28242e" fill-opacity="1"><g transform="translate(164.046881, 25.175677)"><g><path d="M 17.453125 0 L 13.125 0 L 5.890625 -10.953125 L 5.890625 0 L 1.5625 0 L 1.5625 -17.765625 L 5.890625 -17.765625 L 13.125 -6.75 L 13.125 -17.765625 L 17.453125 -17.765625 Z M 17.453125 0 "/></g></g></g><g fill="#28242e" fill-opacity="1"><g transform="translate(183.064749, 25.175677)"><g><path d="M 8.21875 -17.765625 C 10.09375 -17.765625 11.726562 -17.390625 13.125 -16.640625 C 14.53125 -15.898438 15.613281 -14.859375 16.375 -13.515625 C 17.144531 -12.179688 17.53125 -10.632812 17.53125 -8.875 C 17.53125 -7.144531 17.144531 -5.601562 16.375 -4.25 C 15.613281 -2.894531 14.523438 -1.847656 13.109375 -1.109375 C 11.703125 -0.367188 10.070312 0 8.21875 0 L 1.5625 0 L 1.5625 -17.765625 Z M 7.9375 -3.75 C 9.570312 -3.75 10.84375 -4.191406 11.75 -5.078125 C 12.664062 -5.972656 13.125 -7.238281 13.125 -8.875 C 13.125 -10.507812 12.664062 -11.78125 11.75 -12.6875 C 10.84375 -13.601562 9.570312 -14.0625 7.9375 -14.0625 L 5.890625 -14.0625 L 5.890625 -3.75 Z M 7.9375 -3.75 "/></g></g></g><g fill="#28242e" fill-opacity="1"><g transform="translate(201.450372, 25.175677)"><g><path d="M 9.96875 0.171875 C 8.300781 0.171875 6.769531 -0.210938 5.375 -0.984375 C 3.976562 -1.765625 2.867188 -2.847656 2.046875 -4.234375 C 1.234375 -5.628906 0.828125 -7.195312 0.828125 -8.9375 C 0.828125 -10.664062 1.234375 -12.222656 2.046875 -13.609375 C 2.867188 -14.992188 3.976562 -16.070312 5.375 -16.84375 C 6.769531 -17.625 8.300781 -18.015625 9.96875 -18.015625 C 11.632812 -18.015625 13.160156 -17.625 14.546875 -16.84375 C 15.941406 -16.070312 17.039062 -14.992188 17.84375 -13.609375 C 18.644531 -12.222656 19.046875 -10.664062 19.046875 -8.9375 C 19.046875 -7.195312 18.640625 -5.628906 17.828125 -4.234375 C 17.023438 -2.847656 15.929688 -1.765625 14.546875 -0.984375 C 13.160156 -0.210938 11.632812 0.171875 9.96875 0.171875 Z M 9.96875 -3.765625 C 11.382812 -3.765625 12.515625 -4.238281 13.359375 -5.1875 C 14.210938 -6.132812 14.640625 -7.382812 14.640625 -8.9375 C 14.640625 -10.5 14.210938 -11.75 13.359375 -12.6875 C 12.515625 -13.625 11.382812 -14.09375 9.96875 -14.09375 C 8.53125 -14.09375 7.382812 -13.628906 6.53125 -12.703125 C 5.6875 -11.773438 5.265625 -10.519531 5.265625 -8.9375 C 5.265625 -7.363281 5.6875 -6.109375 6.53125 -5.171875 C 7.382812 -4.234375 8.53125 -3.765625 9.96875 -3.765625 Z M 9.96875 -3.765625 "/></g></g></g><g fill="#28242e" fill-opacity="1"><g transform="translate(221.328092, 25.175677)"><g/></g></g><g fill="#28242e" fill-opacity="1"><g transform="translate(226.689516, 25.175677)"><g><path d="M 8 0.171875 C 6.695312 0.171875 5.53125 -0.0351562 4.5 -0.453125 C 3.46875 -0.878906 2.644531 -1.503906 2.03125 -2.328125 C 1.414062 -3.148438 1.09375 -4.144531 1.0625 -5.3125 L 5.671875 -5.3125 C 5.734375 -4.65625 5.957031 -4.148438 6.34375 -3.796875 C 6.738281 -3.453125 7.25 -3.28125 7.875 -3.28125 C 8.507812 -3.28125 9.007812 -3.425781 9.375 -3.71875 C 9.75 -4.019531 9.9375 -4.429688 9.9375 -4.953125 C 9.9375 -5.390625 9.789062 -5.75 9.5 -6.03125 C 9.207031 -6.320312 8.84375 -6.5625 8.40625 -6.75 C 7.976562 -6.9375 7.367188 -7.148438 6.578125 -7.390625 C 5.429688 -7.742188 4.492188 -8.097656 3.765625 -8.453125 C 3.046875 -8.804688 2.421875 -9.328125 1.890625 -10.015625 C 1.367188 -10.710938 1.109375 -11.613281 1.109375 -12.71875 C 1.109375 -14.375 1.707031 -15.671875 2.90625 -16.609375 C 4.101562 -17.546875 5.664062 -18.015625 7.59375 -18.015625 C 9.550781 -18.015625 11.125 -17.546875 12.3125 -16.609375 C 13.507812 -15.671875 14.148438 -14.367188 14.234375 -12.703125 L 9.5625 -12.703125 C 9.53125 -13.273438 9.316406 -13.722656 8.921875 -14.046875 C 8.535156 -14.378906 8.039062 -14.546875 7.4375 -14.546875 C 6.914062 -14.546875 6.492188 -14.40625 6.171875 -14.125 C 5.847656 -13.84375 5.6875 -13.441406 5.6875 -12.921875 C 5.6875 -12.347656 5.957031 -11.898438 6.5 -11.578125 C 7.039062 -11.265625 7.882812 -10.921875 9.03125 -10.546875 C 10.175781 -10.160156 11.109375 -9.789062 11.828125 -9.4375 C 12.546875 -9.082031 13.164062 -8.566406 13.6875 -7.890625 C 14.207031 -7.210938 14.46875 -6.34375 14.46875 -5.28125 C 14.46875 -4.269531 14.207031 -3.351562 13.6875 -2.53125 C 13.175781 -1.707031 12.429688 -1.050781 11.453125 -0.5625 C 10.484375 -0.0703125 9.332031 0.171875 8 0.171875 Z M 8 0.171875 "/></g></g></g><g fill="#28242e" fill-opacity="1"><g transform="translate(242.242683, 25.175677)"><g><path d="M 15.109375 -12.046875 C 15.109375 -11.015625 14.867188 -10.070312 14.390625 -9.21875 C 13.921875 -8.363281 13.195312 -7.675781 12.21875 -7.15625 C 11.238281 -6.632812 10.023438 -6.375 8.578125 -6.375 L 5.890625 -6.375 L 5.890625 0 L 1.5625 0 L 1.5625 -17.765625 L 8.578125 -17.765625 C 9.992188 -17.765625 11.191406 -17.519531 12.171875 -17.03125 C 13.148438 -16.539062 13.882812 -15.863281 14.375 -15 C 14.863281 -14.132812 15.109375 -13.148438 15.109375 -12.046875 Z M 8.25 -9.8125 C 9.070312 -9.8125 9.6875 -10.003906 10.09375 -10.390625 C 10.5 -10.785156 10.703125 -11.335938 10.703125 -12.046875 C 10.703125 -12.753906 10.5 -13.300781 10.09375 -13.6875 C 9.6875 -14.070312 9.070312 -14.265625 8.25 -14.265625 L 5.890625 -14.265625 L 5.890625 -9.8125 Z M 8.25 -9.8125 "/></g></g></g><g fill="#28242e" fill-opacity="1"><g transform="translate(258.023467, 25.175677)"><g><path d="M 9.96875 0.171875 C 8.300781 0.171875 6.769531 -0.210938 5.375 -0.984375 C 3.976562 -1.765625 2.867188 -2.847656 2.046875 -4.234375 C 1.234375 -5.628906 0.828125 -7.195312 0.828125 -8.9375 C 0.828125 -10.664062 1.234375 -12.222656 2.046875 -13.609375 C 2.867188 -14.992188 3.976562 -16.070312 5.375 -16.84375 C 6.769531 -17.625 8.300781 -18.015625 9.96875 -18.015625 C 11.632812 -18.015625 13.160156 -17.625 14.546875 -16.84375 C 15.941406 -16.070312 17.039062 -14.992188 17.84375 -13.609375 C 18.644531 -12.222656 19.046875 -10.664062 19.046875 -8.9375 C 19.046875 -7.195312 18.640625 -5.628906 17.828125 -4.234375 C 17.023438 -2.847656 15.929688 -1.765625 14.546875 -0.984375 C 13.160156 -0.210938 11.632812 0.171875 9.96875 0.171875 Z M 9.96875 -3.765625 C 11.382812 -3.765625 12.515625 -4.238281 13.359375 -5.1875 C 14.210938 -6.132812 14.640625 -7.382812 14.640625 -8.9375 C 14.640625 -10.5 14.210938 -11.75 13.359375 -12.6875 C 12.515625 -13.625 11.382812 -14.09375 9.96875 -14.09375 C 8.53125 -14.09375 7.382812 -13.628906 6.53125 -12.703125 C 5.6875 -11.773438 5.265625 -10.519531 5.265625 -8.9375 C 5.265625 -7.363281 5.6875 -6.109375 6.53125 -5.171875 C 7.382812 -4.234375 8.53125 -3.765625 9.96875 -3.765625 Z M 9.96875 -3.765625 "/></g></g></g><g fill="#28242e" fill-opacity="1"><g transform="translate(277.901186, 25.175677)"><g><path d="M 14.34375 -17.765625 L 14.34375 -14.296875 L 9.640625 -14.296875 L 9.640625 0 L 5.3125 0 L 5.3125 -14.296875 L 0.609375 -14.296875 L 0.609375 -17.765625 Z M 14.34375 -17.765625 "/></g></g></g><g fill="#28242e" fill-opacity="1"><g transform="translate(292.847418, 25.175677)"><g><path d="M 5.890625 -17.765625 L 5.890625 0 L 1.5625 0 L 1.5625 -17.765625 Z M 5.890625 -17.765625 "/></g></g></g><g fill="#28242e" fill-opacity="1"><g transform="translate(300.307884, 25.175677)"><g><path d="M 13.125 -17.765625 L 13.125 -14.296875 L 5.890625 -14.296875 L 5.890625 -10.546875 L 11.3125 -10.546875 L 11.3125 -7.1875 L 5.890625 -7.1875 L 5.890625 0 L 1.5625 0 L 1.5625 -17.765625 Z M 13.125 -17.765625 "/></g></g></g><g fill="#28242e" fill-opacity="1"><g transform="translate(314.141371, 25.175677)"><g><path d="M 16.796875 -17.765625 L 10.65625 -5.875 L 10.65625 0 L 6.328125 0 L 6.328125 -5.875 L 0.171875 -17.765625 L 5.078125 -17.765625 L 8.53125 -10.328125 L 11.9375 -17.765625 Z M 16.796875 -17.765625 "/></g></g></g></svg>
