<svg xmlns="http://www.w3.org/2000/svg" xmlns:xlink="http://www.w3.org/1999/xlink" width="500" zoomAndPan="magnify" viewBox="0 0 375 374.999991" height="500" preserveAspectRatio="xMidYMid meet" version="1.0"><defs><clipPath id="f649389414"><path d="M 12 0 L 363.765625 0 L 363.765625 374.898438 L 12 374.898438 Z M 12 0 " clip-rule="nonzero"/></clipPath><clipPath id="63681967fb"><path d="M 121.984375 144.9375 L 300.933594 144.9375 L 300.933594 323.882812 L 121.984375 323.882812 Z M 121.984375 144.9375 " clip-rule="nonzero"/></clipPath><clipPath id="eab0e511e0"><path d="M 211.457031 144.9375 C 162.042969 144.9375 121.984375 184.996094 121.984375 234.410156 C 121.984375 283.824219 162.042969 323.882812 211.457031 323.882812 C 260.875 323.882812 300.933594 283.824219 300.933594 234.410156 C 300.933594 184.996094 260.875 144.9375 211.457031 144.9375 Z M 211.457031 144.9375 " clip-rule="nonzero"/></clipPath><clipPath id="54a7c57d0f"><path d="M 123.957031 146.121094 L 299.285156 146.121094 L 299.285156 321.449219 L 123.957031 321.449219 Z M 123.957031 146.121094 " clip-rule="nonzero"/></clipPath></defs><g clip-path="url(#f649389414)"><path fill="#100f0d" d="M 281.628906 152.304688 C 278.398438 152.304688 275.769531 149.675781 275.769531 146.445312 C 275.769531 143.214844 278.398438 140.585938 281.628906 140.585938 C 284.859375 140.585938 287.488281 143.214844 287.488281 146.445312 C 287.488281 149.675781 284.859375 152.304688 281.628906 152.304688 Z M 246.472656 147.433594 L 246.472656 11.714844 L 281.628906 11.714844 L 281.628906 128.871094 C 271.9375 128.871094 264.050781 136.753906 264.050781 146.445312 C 264.050781 149.152344 264.667969 151.722656 265.765625 154.015625 L 263.378906 156.40625 C 258.097656 152.867188 252.433594 149.851562 246.472656 147.433594 Z M 293.347656 234.3125 C 293.347656 279.53125 256.546875 316.320312 211.3125 316.320312 C 166.078125 316.320312 129.277344 279.53125 129.277344 234.3125 C 129.277344 189.089844 166.078125 152.304688 211.3125 152.304688 C 256.546875 152.304688 293.347656 189.089844 293.347656 234.3125 Z M 338.507812 353.183594 C 339.617188 354.292969 340.226562 355.761719 340.226562 357.324219 C 340.226562 358.890625 339.617188 360.359375 338.507812 361.46875 C 337.402344 362.574219 335.929688 363.183594 334.367188 363.183594 C 332.800781 363.183594 331.332031 362.574219 330.222656 361.46875 L 273.300781 304.5625 C 276.230469 301.976562 279 299.210938 281.585938 296.28125 Z M 105.839844 223.292969 L 105.839844 87.867188 L 140.996094 87.867188 L 140.996094 172.394531 C 131.207031 183.492188 124 196.910156 120.320312 211.714844 Z M 94.121094 246.027344 C 90.890625 246.027344 88.261719 243.398438 88.261719 240.167969 C 88.261719 236.941406 90.890625 234.3125 94.121094 234.3125 C 97.351562 234.3125 99.980469 236.941406 99.980469 240.167969 C 99.980469 243.398438 97.351562 246.027344 94.121094 246.027344 Z M 54.335938 219 L 35.523438 243.179688 L 35.523438 128.871094 L 70.683594 128.871094 L 70.683594 221.90625 L 61.582031 217.355469 C 59.085938 216.109375 56.050781 216.796875 54.335938 219 Z M 176.15625 41.003906 L 211.3125 41.003906 L 211.3125 140.585938 C 198.882812 140.585938 187.019531 143.019531 176.15625 147.433594 Z M 357.804688 99.582031 L 334.367188 99.582031 C 331.128906 99.582031 328.507812 102.207031 328.507812 105.441406 C 328.507812 108.675781 331.128906 111.296875 334.367188 111.296875 L 344.890625 111.296875 L 314.527344 145.988281 L 298.9375 143.390625 C 298.242188 139.4375 296.222656 135.933594 293.347656 133.363281 L 293.347656 5.859375 C 293.347656 2.621094 290.726562 0 287.488281 0 L 240.613281 0 C 237.375 0 234.753906 2.621094 234.753906 5.859375 L 234.753906 143.554688 C 230.933594 142.566406 227.019531 141.816406 223.03125 141.316406 L 223.03125 35.148438 C 223.03125 31.910156 220.410156 29.289062 217.171875 29.289062 L 170.296875 29.289062 C 167.058594 29.289062 164.4375 31.910156 164.4375 35.148438 L 164.4375 153.167969 C 160.320312 155.550781 156.40625 158.242188 152.71875 161.207031 L 152.71875 82.007812 C 152.71875 78.773438 150.09375 76.152344 146.855469 76.152344 L 99.980469 76.152344 C 96.742188 76.152344 94.121094 78.773438 94.121094 82.007812 L 94.121094 222.597656 C 89.621094 222.597656 85.515625 224.296875 82.402344 227.085938 L 82.402344 123.015625 C 82.402344 119.777344 79.777344 117.15625 76.542969 117.15625 L 29.664062 117.15625 C 26.429688 117.15625 23.804688 119.777344 23.804688 123.015625 L 23.804688 258.242188 L 13.320312 271.722656 C 11.332031 274.273438 11.792969 277.953125 14.347656 279.9375 C 15.414062 280.769531 16.683594 281.175781 17.941406 281.175781 C 19.6875 281.175781 21.414062 280.394531 22.570312 278.910156 L 60.640625 229.984375 L 76.679688 238 C 76.59375 238.714844 76.542969 239.433594 76.542969 240.167969 C 76.542969 249.859375 84.425781 257.742188 94.121094 257.742188 C 103.8125 257.742188 111.699219 249.859375 111.699219 240.167969 C 111.699219 238.148438 111.351562 236.207031 110.722656 234.394531 L 117.726562 228.792969 C 117.617188 230.621094 117.558594 232.457031 117.558594 234.3125 C 117.558594 285.992188 159.617188 328.035156 211.3125 328.035156 C 230.824219 328.035156 248.957031 322.042969 263.980469 311.8125 L 321.9375 369.753906 C 325.257812 373.070312 329.671875 374.898438 334.367188 374.898438 C 339.0625 374.898438 343.476562 373.070312 346.792969 369.753906 C 350.117188 366.433594 351.945312 362.019531 351.945312 357.324219 C 351.945312 352.632812 350.117188 348.21875 346.792969 344.898438 L 288.839844 286.960938 C 299.078125 271.945312 305.066406 253.816406 305.066406 234.3125 C 305.066406 206.113281 292.542969 180.785156 272.769531 163.585938 L 274.054688 162.300781 C 276.351562 163.402344 278.917969 164.019531 281.628906 164.019531 C 288.238281 164.019531 294.007812 160.351562 297.007812 154.945312 L 315.824219 158.082031 C 316.144531 158.136719 316.464844 158.160156 316.785156 158.160156 C 318.460938 158.160156 320.074219 157.441406 321.195312 156.160156 L 351.945312 121.027344 L 351.945312 128.871094 C 351.945312 132.105469 354.570312 134.730469 357.804688 134.730469 C 361.039062 134.730469 363.664062 132.105469 363.664062 128.871094 L 363.664062 105.441406 C 363.664062 102.207031 361.039062 99.582031 357.804688 99.582031 " fill-opacity="1" fill-rule="nonzero"/></g><path fill="#100f0d" d="M 211.3125 292.890625 C 179.003906 292.890625 152.71875 266.613281 152.71875 234.3125 C 152.71875 202.011719 179.003906 175.734375 211.3125 175.734375 C 243.625 175.734375 269.910156 202.011719 269.910156 234.3125 C 269.910156 266.613281 243.625 292.890625 211.3125 292.890625 Z M 211.3125 164.019531 C 172.542969 164.019531 140.996094 195.550781 140.996094 234.3125 C 140.996094 273.070312 172.542969 304.605469 211.3125 304.605469 C 250.085938 304.605469 281.628906 273.070312 281.628906 234.3125 C 281.628906 195.550781 250.085938 164.019531 211.3125 164.019531 " fill-opacity="1" fill-rule="nonzero"/><path fill="#100f0d" d="M 211.3125 269.457031 C 191.925781 269.457031 176.15625 253.691406 176.15625 234.3125 C 176.15625 231.078125 173.53125 228.453125 170.296875 228.453125 C 167.058594 228.453125 164.4375 231.078125 164.4375 234.3125 C 164.4375 260.152344 185.464844 281.175781 211.3125 281.175781 C 214.550781 281.175781 217.171875 278.550781 217.171875 275.316406 C 217.171875 272.082031 214.550781 269.457031 211.3125 269.457031 " fill-opacity="1" fill-rule="nonzero"/><g clip-path="url(#63681967fb)"><g clip-path="url(#eab0e511e0)"><path fill="#ffffff" d="M 121.984375 144.9375 L 300.933594 144.9375 L 300.933594 323.882812 L 121.984375 323.882812 Z M 121.984375 144.9375 " fill-opacity="1" fill-rule="nonzero"/></g></g><g clip-path="url(#54a7c57d0f)"><path fill="#00bf63" d="M 263.589844 224.257812 C 235.484375 207.570312 188.5 205.816406 161.714844 214.15625 C 157.320312 215.476562 152.929688 212.839844 151.613281 208.886719 C 150.296875 204.496094 152.929688 200.105469 156.882812 198.789062 C 188.058594 189.566406 239.4375 191.324219 271.933594 210.644531 C 275.882812 212.839844 277.199219 218.109375 275.007812 222.0625 C 272.808594 225.136719 267.539062 226.453125 263.589844 224.257812 Z M 262.710938 248.847656 C 260.515625 251.921875 256.5625 253.238281 253.488281 251.042969 C 229.777344 236.554688 193.769531 232.160156 166.105469 240.945312 C 162.589844 241.824219 158.640625 240.066406 157.761719 236.554688 C 156.882812 233.039062 158.640625 229.089844 162.152344 228.210938 C 194.207031 218.550781 233.730469 223.378906 260.953125 240.066406 C 263.589844 241.382812 264.90625 245.773438 262.710938 248.847656 Z M 252.171875 273 C 250.414062 275.636719 247.339844 276.511719 244.707031 274.757812 C 224.066406 262.023438 198.160156 259.386719 167.421875 266.414062 C 164.347656 267.292969 161.714844 265.097656 160.835938 262.460938 C 159.957031 259.386719 162.152344 256.753906 164.785156 255.875 C 198.160156 248.410156 227.140625 251.484375 249.976562 265.535156 C 253.050781 266.851562 253.488281 270.363281 252.171875 273 Z M 211.773438 146.09375 C 200.238281 146.09375 188.820312 148.367188 178.164062 152.78125 C 167.507812 157.195312 157.828125 163.664062 149.671875 171.816406 C 133.203125 188.289062 123.949219 210.625 123.949219 233.917969 C 123.949219 257.210938 133.203125 279.546875 149.671875 296.019531 C 157.828125 304.175781 167.507812 310.644531 178.164062 315.058594 C 188.820312 319.472656 200.238281 321.742188 211.773438 321.742188 C 235.066406 321.742188 257.402344 312.488281 273.875 296.019531 C 290.34375 279.546875 299.597656 257.210938 299.597656 233.917969 C 299.597656 222.386719 297.324219 210.964844 292.910156 200.308594 C 288.496094 189.65625 282.027344 179.972656 273.875 171.816406 C 265.71875 163.664062 256.035156 157.195312 245.382812 152.78125 C 234.726562 148.367188 223.304688 146.09375 211.773438 146.09375 Z M 211.773438 146.09375 " fill-opacity="1" fill-rule="nonzero"/></g></svg>